HIERARCHY
ROOT Hips
{
	OFFSET 0.000000 0.000000 0.000000
	CHANNELS 6 Xposition Yposition Zposition Zrotation Yrotation Xrotation 
	JOINT LowerBack
	{
		OFFSET 0.000000 0.000000 0.000000
		CHANNELS 3 Zrotation Yrotation Xrotation
		JOINT Spine
		{
			OFFSET 0.028270 2.035590 -0.193380
			CHANNELS 3 Zrotation Yrotation Xrotation
			JOINT Spine1
			{
				OFFSET 0.056720 2.048850 -0.042750
				CHANNELS 3 Zrotation Yrotation Xrotation
				JOINT Neck
				{
					OFFSET 0.000000 0.000000 0.000000
					CHANNELS 3 Zrotation Yrotation Xrotation
					JOINT Neck1
					{
						OFFSET -0.054170 1.746240 0.172020
						CHANNELS 3 Zrotation Yrotation Xrotation
						JOINT Head
						{
							OFFSET 0.104070 1.761360 -0.123970
							CHANNELS 3 Zrotation Yrotation Xrotation
							End Site
							{
								OFFSET 0.000000 0.000000 0.000000
							}
						}
					}
				}
				JOINT LeftShoulder
				{
					OFFSET 0.000000 0.000000 0.000000
					CHANNELS 3 Zrotation Yrotation Xrotation
					JOINT LeftArm
					{
						OFFSET 3.362410 1.200890 -0.311210
						CHANNELS 3 Zrotation Yrotation Xrotation
						JOINT LeftForeArm
						{
							OFFSET 4.983000 -0.000000 -0.000000
							CHANNELS 3 Zrotation Yrotation Xrotation
							JOINT LeftHand
							{
								OFFSET 3.483560 -0.000000 -0.000000
								CHANNELS 3 Zrotation Yrotation Xrotation
								JOINT LeftFingerBase
								{
									OFFSET 0.000000 0.000000 0.000000
									CHANNELS 3 Zrotation Yrotation Xrotation
									JOINT LeftHandIndex1
									{
										OFFSET 0.715260 -0.000000 -0.000000
										CHANNELS 3 Zrotation Yrotation Xrotation
										End Site
										{
											OFFSET 0.000000 0.000000 0.000000
										}
									}
								}
								JOINT LThumb
								{
									OFFSET 0.000000 0.000000 0.000000
									CHANNELS 3 Zrotation Yrotation Xrotation
									End Site
									{
										OFFSET 0.000000 0.000000 0.000000
									}
								}
							}
						}
					}
				}
				JOINT RightShoulder
				{
					OFFSET 0.000000 0.000000 0.000000
					CHANNELS 3 Zrotation Yrotation Xrotation
					JOINT RightArm
					{
						OFFSET -3.136600 1.374050 -0.404650
						CHANNELS 3 Zrotation Yrotation Xrotation
						JOINT RightForeArm
						{
							OFFSET -5.241900 -0.000000 -0.000000
							CHANNELS 3 Zrotation Yrotation Xrotation
							JOINT RightHand
							{
								OFFSET -3.444170 -0.000000 -0.000000
								CHANNELS 3 Zrotation Yrotation Xrotation
								JOINT RightFingerBase
								{
									OFFSET 0.000000 0.000000 0.000000
									CHANNELS 3 Zrotation Yrotation Xrotation
									JOINT RightHandIndex1
									{
										OFFSET -0.622530 -0.000000 -0.000000
										CHANNELS 3 Zrotation Yrotation Xrotation
										End Site
										{
											OFFSET 0.000000 0.000000 0.000000
										}
									}
								}
								JOINT RThumb
								{
									OFFSET 0.000000 0.000000 0.000000
									CHANNELS 3 Zrotation Yrotation Xrotation
									End Site
									{
										OFFSET 0.000000 0.000000 0.000000
									}
								}
							}
						}
					}
				}
			}
		}
	}
}
}
MOTION
Frames: 6
Frame Time: 0.008333
3.992892 16.788404 5.116146 2.762216 29.050194 -0.005693 2.604070 -5.364633 -0.849016 0.304491 -5.636367 -2.165495 -4.872094 -5.649628 3.392166 8.404569 -19.380390 -9.253126 -2.077719 -0.137742 -0.372826 0.000000 0.000000 0.000000 2.217334 15.109685 1.439025 -29.359175 -2.999731 -4.048873 -1.817610 -50.224050 -0.006916 2.323007 0.870828 0.016198 -0.144338 0.170591 -0.000000 0.000000 0.000000 0.000000 0.000000 0.000000 0.000000 13.465320 -18.744838 -0.660105 66.460546 -23.477196 -29.452771 4.657906 11.974388 0.007822 -0.353495 2.625469 -0.011725 0.163991 -0.038266 0.000000 0.000000 0.000000 0.000000 0.000000 0.000000 0.000000 
4.021904 16.782919 5.254354 2.768844 28.623333 0.013478 2.674208 -5.345549 -0.899023 0.314754 -5.622162 -2.181944 -4.894006 -5.633810 3.374027 8.420238 -19.331294 -9.278195 -2.090043 -0.138508 -0.379164 0.000000 0.000000 0.000000 2.206072 15.176035 1.386077 -29.887313 -2.597043 -3.680700 -1.776204 -51.478017 -0.005105 1.891185 0.690984 0.010299 -0.137542 0.171063 -0.000000 0.000000 0.000000 0.000000 0.000000 0.000000 0.000000 13.472169 -18.637134 -0.629782 66.634492 -23.110509 -29.573315 4.656959 11.859108 0.007735 -0.231864 2.591968 -0.008727 0.162417 -0.038458 0.000000 0.000000 0.000000 0.000000 0.000000 0.000000 0.000000 
4.048155 16.777089 5.390674 2.799968 28.204175 0.047298 2.709330 -5.325065 -0.934149 0.316159 -5.604065 -2.194707 -4.920178 -5.613657 3.356867 8.450220 -19.283334 -9.305888 -2.104556 -0.139384 -0.386341 0.000000 0.000000 0.000000 2.202610 15.225385 1.334667 -30.468707 -2.193106 -3.326460 -1.742705 -52.622446 -0.003404 1.473048 0.528215 0.006100 -0.131167 0.170905 -0.000000 0.000000 0.000000 0.000000 0.000000 0.000000 0.000000 13.500838 -18.531353 -0.598358 66.839448 -22.670475 -29.634472 4.652860 11.776583 0.007689 -0.094233 2.572947 -0.005526 0.160545 -0.038670 0.000000 0.000000 0.000000 0.000000 0.000000 0.000000 0.000000 
4.071782 16.771042 5.524855 2.852568 27.794981 0.090092 2.711185 -5.303161 -0.951953 0.309159 -5.582095 -2.203360 -4.949935 -5.589260 3.340572 8.492428 -19.236177 -9.333244 -2.121604 -0.140443 -0.393601 0.000000 0.000000 0.000000 2.207104 15.255514 1.283963 -31.105509 -1.789328 -2.981134 -1.716525 -53.648833 -0.001884 1.084809 0.391852 0.003398 -0.125400 0.170048 -0.000000 0.000000 0.000000 0.000000 0.000000 0.000000 0.000000 13.550599 -18.428174 -0.566855 67.072055 -22.158755 -29.634701 4.645704 11.727870 0.007670 0.058820 2.562527 -0.002025 0.158397 -0.038880 0.000000 0.000000 0.000000 0.000000 0.000000 0.000000 0.000000 
4.092982 16.764923 5.656724 2.921213 27.393911 0.136623 2.684109 -5.279285 -0.951438 0.294814 -5.555919 -2.207872 -4.982548 -5.560381 3.324944 8.543839 -19.189537 -9.357122 -2.141364 -0.141750 -0.400121 0.000000 0.000000 0.000000 2.218822 15.264286 1.233056 -31.798423 -1.382646 -2.639604 -1.697029 -54.553163 -0.000598 0.740302 0.289327 0.001994 -0.120404 0.168426 -0.000000 0.000000 0.000000 0.000000 0.000000 0.000000 0.000000 13.618839 -18.327916 -0.536104 67.328346 -21.576898 -29.570118 4.635703 11.714193 0.007654 0.226523 2.552743 0.001876 0.155999 -0.039053 0.000000 0.000000 0.000000 0.000000 0.000000 0.000000 0.000000 
4.111977 16.758908 5.786231 3.001528 26.996719 0.183310 2.631838 -5.252659 -0.933547 0.273996 -5.524986 -2.208502 -5.017624 -5.526538 3.309933 8.601972 -19.142484 -9.374852 -2.164146 -0.143375 -0.405206 0.000000 0.000000 0.000000 2.235546 15.253453 1.181067 -32.545656 -0.971316 -2.296283 -1.683665 -55.333521 0.000417 0.450895 0.225093 0.001391 -0.116311 0.165994 -0.000000 0.000000 0.000000 0.000000 0.000000 0.000000 0.000000 13.704436 -18.229796 -0.507188 67.602415 -20.926483 -29.434737 4.623175 11.736658 0.007615 0.408105 2.533943 0.005979 0.153379 -0.039143 0.000000 0.000000 0.000000 0.000000 0.000000 0.000000 0.000000 
